# xmcd
#
# Track frame offsets:
# 150
# 16121
# 31433
# 59465
#
# Disc length: 1031 seconds
#
# Revision: 1
# Processed by: cddbd v1.5.2PL0 Copyright (c) Steve Scherf et al.
# Submitted via: CedeCatalogueitor 2.6.0.6 http://personales.ya.com/cdcatalogueitor
#
DISCID=29040504
DTITLE=Feder - Pushing The Senses [CD Single)
DYEAR=1900
DGENRE=
TTITLE0=Pushing The Senses
TTITLE1=I For You
TTITLE2=Crowd Of Stars
TTITLE3=Pushing The Senses (video)
EXTD=
EXTT0=
EXTT1=
EXTT2=
EXTT3=
PLAYORDER=
